# xmcd CD database file
#
# Track frame offsets:
#	150
#	17827
#	37062
#	56975
#	72010
#	87802
#	113187
#	140002
#	157542
#	175382
#	189052
#	206815
#
# Disc length: 2854 seconds
#
# Revision: 2
# Processed by: cddbd v1.4PL0 Copyright (c) Steve Scherf et al.
# Submitted via: CDex 1.50beta10
#
DISCID=a10b240c
DTITLE=Little Buster and the Soul Brothers - Right On Time!
DYEAR=1995
DGENRE=Blues
TTITLE0=What Can I Do (Somebody Tell Me)
TTITLE1=Engines and Wings
TTITLE2=First You Cry
TTITLE3=Ever Since
TTITLE4=Whatever It Takes
TTITLE5=That's What I Want To Do
TTITLE6=I've Been Watching You
TTITLE7=I'm So Lonesome
TTITLE8=Broken Hearted Man
TTITLE9=What Do I Have To Do (To Make You Love Me)
TTITLE10=My Darling
TTITLE11=Baby Couldn't Be Found
EXTD=YEAR: 1995
EXTT0=
EXTT1=
EXTT2=
EXTT3=
EXTT4=
EXTT5=
EXTT6=
EXTT7=
EXTT8=
EXTT9=
EXTT10=
EXTT11=
PLAYORDER=
